<svg xmlns="http://www.w3.org/2000/svg" xmlns:xlink="http://www.w3.org/1999/xlink" width="500" zoomAndPan="magnify" viewBox="0 0 375 374.999991" height="500" preserveAspectRatio="xMidYMid meet" version="1.0"><defs><g/><clipPath id="cc6bc9e9ab"><path d="M 37.5 37.5 L 337.5 37.5 L 337.5 337.5 L 37.5 337.5 Z M 37.5 37.5 " clip-rule="nonzero"/></clipPath><clipPath id="9a07221349"><path d="M 187.5 37.5 C 104.65625 37.5 37.5 104.65625 37.5 187.5 C 37.5 270.34375 104.65625 337.5 187.5 337.5 C 270.34375 337.5 337.5 270.34375 337.5 187.5 C 337.5 104.65625 270.34375 37.5 187.5 37.5 Z M 187.5 37.5 " clip-rule="nonzero"/></clipPath></defs><g clip-path="url(#cc6bc9e9ab)"><g clip-path="url(#9a07221349)"><path fill="#272727" d="M 37.5 37.5 L 337.5 37.5 L 337.5 337.5 L 37.5 337.5 Z M 37.5 37.5 " fill-opacity="1" fill-rule="nonzero"/></g></g><g fill="#ffffff" fill-opacity="1"><g transform="translate(76.534862, 239.400325)"><g><path d="M 113.609375 -74.53125 C 113.609375 -67.96875 111.835938 -62.03125 108.296875 -56.71875 C 104.753906 -51.40625 99.597656 -47.5 92.828125 -45 L 116.734375 0 L 77.984375 0 L 58.90625 -39.21875 L 46.09375 -39.21875 L 46.09375 0 L 11.5625 0 L 11.5625 -107.515625 L 77.34375 -107.515625 C 85.0625 -107.515625 91.65625 -106.03125 97.125 -103.0625 C 102.59375 -100.09375 106.707031 -96.082031 109.46875 -91.03125 C 112.226562 -85.976562 113.609375 -80.476562 113.609375 -74.53125 Z M 78.453125 -73.125 C 78.453125 -75.9375 77.507812 -78.28125 75.625 -80.15625 C 73.75 -82.039062 71.457031 -82.984375 68.75 -82.984375 L 46.09375 -82.984375 L 46.09375 -63.125 L 68.75 -63.125 C 71.457031 -63.125 73.75 -64.085938 75.625 -66.015625 C 77.507812 -67.941406 78.453125 -70.3125 78.453125 -73.125 Z M 78.453125 -73.125 "/></g></g></g><path stroke-linecap="butt" transform="matrix(0.494289, 0, 0, 0.494289, 128.361471, 78.262113)" fill="none" stroke-linejoin="miter" d="M 147.824891 108.49627 L 323.566591 108.49627 L 323.566591 160.67823 L 217.677435 160.67823 L 217.677435 197.955575 L 308.748905 197.955575 L 308.748905 247.893151 L 217.677435 247.893151 L 217.677435 325.996182 L 147.824891 325.996182 Z M 147.824891 108.49627 " stroke="#272727" stroke-width="45.050236" stroke-opacity="1" stroke-miterlimit="4"/><g fill="#ffffff" fill-opacity="1"><g transform="translate(189.869558, 239.400325)"><g><path d="M 11.5625 -107.515625 L 98.453125 -107.515625 L 98.453125 -81.734375 L 46.09375 -81.734375 L 46.09375 -63.28125 L 91.109375 -63.28125 L 91.109375 -38.59375 L 46.09375 -38.59375 L 46.09375 0 L 11.5625 0 Z M 11.5625 -107.515625 "/></g></g></g><path stroke-linecap="butt" transform="matrix(0.75, 0.000000000000000076, -0.000000000000000076, 0.75, 82.65364, 114.914985)" fill="none" stroke-linejoin="miter" d="M -0.00172816 1.99877 L 279.59204 1.99877 " stroke="#ffffff" stroke-width="4" stroke-opacity="1" stroke-miterlimit="4"/><g fill="#ffffff" fill-opacity="1"><g transform="translate(180.408098, 276.013664)"><g><path d="M 13.3125 -7.625 L 13.3125 -4.671875 C 12.957031 -3.054688 12.1875 -1.832031 11 -1 C 9.8125 -0.164062 8.484375 0.25 7.015625 0.25 C 5.179688 0.25 3.613281 -0.4375 2.3125 -1.8125 C 1.019531 -3.1875 0.375 -4.847656 0.375 -6.796875 C 0.375 -8.785156 1.003906 -10.460938 2.265625 -11.828125 C 3.535156 -13.191406 5.117188 -13.875 7.015625 -13.875 C 9.234375 -13.875 10.984375 -13.097656 12.265625 -11.546875 L 10.234375 -9.3125 C 9.515625 -10.476562 8.503906 -11.0625 7.203125 -11.0625 C 6.242188 -11.0625 5.425781 -10.644531 4.75 -9.8125 C 4.070312 -8.988281 3.734375 -7.984375 3.734375 -6.796875 C 3.734375 -5.648438 4.070312 -4.664062 4.75 -3.84375 C 5.425781 -3.019531 6.242188 -2.609375 7.203125 -2.609375 C 7.992188 -2.609375 8.679688 -2.847656 9.265625 -3.328125 C 9.859375 -3.804688 10.15625 -4.441406 10.15625 -5.234375 L 7.015625 -5.234375 L 7.015625 -7.625 Z M 13.3125 -7.625 "/></g></g></g><g fill="#ffffff" fill-opacity="1"><g transform="translate(195.170319, 276.013664)"><g><path d="M 11.46875 -13.625 L 11.46875 -4.84375 C 11.46875 -3.164062 11.015625 -1.894531 10.109375 -1.03125 C 9.203125 -0.175781 7.878906 0.25 6.140625 0.25 C 4.398438 0.25 3.078125 -0.175781 2.171875 -1.03125 C 1.273438 -1.894531 0.828125 -3.164062 0.828125 -4.84375 L 0.828125 -13.625 L 3.9375 -13.625 L 3.9375 -5.75 C 3.9375 -4.644531 4.109375 -3.878906 4.453125 -3.453125 C 4.796875 -3.023438 5.359375 -2.8125 6.140625 -2.8125 C 6.921875 -2.8125 7.484375 -3.023438 7.828125 -3.453125 C 8.179688 -3.878906 8.359375 -4.644531 8.359375 -5.75 L 8.359375 -13.625 Z M 11.46875 -13.625 "/></g></g></g><g fill="#ffffff" fill-opacity="1"><g transform="translate(208.529048, 276.013664)"><g><path d="M 4.09375 -13.625 L 4.09375 -2.71875 L 8.78125 -2.71875 L 8.78125 0 L 0.984375 0 L 0.984375 -13.625 Z M 4.09375 -13.625 "/></g></g></g><g fill="#ffffff" fill-opacity="1"><g transform="translate(157.519473, 293.711291)"><g><path d="M 2.90625 -5.71875 C 3.300781 -5.71875 3.640625 -5.644531 3.921875 -5.5 C 4.203125 -5.363281 4.414062 -5.160156 4.5625 -4.890625 C 4.707031 -4.628906 4.78125 -4.320312 4.78125 -3.96875 C 4.78125 -3.613281 4.707031 -3.304688 4.5625 -3.046875 C 4.414062 -2.785156 4.203125 -2.582031 3.921875 -2.4375 C 3.640625 -2.300781 3.300781 -2.234375 2.90625 -2.234375 L 1.53125 -2.234375 L 1.53125 0 L 0.859375 0 L 0.859375 -5.71875 Z M 2.890625 -2.8125 C 3.679688 -2.8125 4.078125 -3.195312 4.078125 -3.96875 C 4.078125 -4.75 3.679688 -5.140625 2.890625 -5.140625 L 1.53125 -5.140625 L 1.53125 -2.8125 Z M 2.890625 -2.8125 "/></g></g></g><g fill="#ffffff" fill-opacity="1"><g transform="translate(167.454481, 293.711291)"><g><path d="M 3.140625 0.078125 C 2.640625 0.078125 2.195312 -0.0234375 1.8125 -0.234375 C 1.425781 -0.453125 1.125 -0.78125 0.90625 -1.21875 C 0.6875 -1.65625 0.578125 -2.203125 0.578125 -2.859375 C 0.578125 -3.515625 0.6875 -4.0625 0.90625 -4.5 C 1.125 -4.9375 1.425781 -5.257812 1.8125 -5.46875 C 2.195312 -5.6875 2.640625 -5.796875 3.140625 -5.796875 C 3.628906 -5.796875 4.066406 -5.6875 4.453125 -5.46875 C 4.835938 -5.257812 5.140625 -4.9375 5.359375 -4.5 C 5.585938 -4.0625 5.703125 -3.515625 5.703125 -2.859375 C 5.703125 -2.203125 5.585938 -1.65625 5.359375 -1.21875 C 5.140625 -0.78125 4.835938 -0.453125 4.453125 -0.234375 C 4.066406 -0.0234375 3.628906 0.078125 3.140625 0.078125 Z M 3.140625 -0.546875 C 3.734375 -0.546875 4.1875 -0.726562 4.5 -1.09375 C 4.820312 -1.46875 4.984375 -2.054688 4.984375 -2.859375 C 4.984375 -3.660156 4.820312 -4.242188 4.5 -4.609375 C 4.1875 -4.984375 3.734375 -5.171875 3.140625 -5.171875 C 1.910156 -5.171875 1.296875 -4.398438 1.296875 -2.859375 C 1.296875 -1.316406 1.910156 -0.546875 3.140625 -0.546875 Z M 3.140625 -0.546875 "/></g></g></g><g fill="#ffffff" fill-opacity="1"><g transform="translate(178.44808, 293.711291)"><g><path d="M 0.859375 0 L 0.859375 -5.71875 L 2.9375 -5.71875 C 3.320312 -5.71875 3.644531 -5.648438 3.90625 -5.515625 C 4.164062 -5.390625 4.359375 -5.210938 4.484375 -4.984375 C 4.617188 -4.753906 4.6875 -4.484375 4.6875 -4.171875 C 4.6875 -3.816406 4.597656 -3.523438 4.421875 -3.296875 C 4.242188 -3.066406 3.96875 -2.894531 3.59375 -2.78125 L 3.59375 -2.6875 C 3.78125 -2.613281 3.929688 -2.5 4.046875 -2.34375 C 4.160156 -2.1875 4.269531 -1.957031 4.375 -1.65625 L 4.890625 0 L 4.203125 0 L 3.640625 -1.75 C 3.566406 -1.957031 3.484375 -2.117188 3.390625 -2.234375 C 3.304688 -2.347656 3.195312 -2.429688 3.0625 -2.484375 C 2.925781 -2.535156 2.753906 -2.5625 2.546875 -2.5625 L 1.53125 -2.5625 L 1.53125 0 Z M 2.921875 -3.140625 C 3.273438 -3.140625 3.539062 -3.21875 3.71875 -3.375 C 3.894531 -3.539062 3.984375 -3.796875 3.984375 -4.140625 C 3.984375 -4.472656 3.894531 -4.722656 3.71875 -4.890625 C 3.539062 -5.054688 3.273438 -5.140625 2.921875 -5.140625 L 1.53125 -5.140625 L 1.53125 -3.140625 Z M 2.921875 -3.140625 "/></g></g></g><g fill="#ffffff" fill-opacity="1"><g transform="translate(188.465119, 293.711291)"><g><path d="M 4.453125 -5.71875 L 4.453125 -5.140625 L 2.671875 -5.140625 L 2.671875 0 L 2 0 L 2 -5.140625 L 0.21875 -5.140625 L 0.21875 -5.71875 Z M 4.453125 -5.71875 "/></g></g></g><g fill="#ffffff" fill-opacity="1"><g transform="translate(197.857159, 293.711291)"><g><path d="M 4.21875 -5.71875 L 4.21875 -5.15625 L 1.53125 -5.15625 L 1.53125 -3.078125 L 3.953125 -3.078125 L 3.953125 -2.515625 L 1.53125 -2.515625 L 1.53125 0 L 0.859375 0 L 0.859375 -5.71875 Z M 4.21875 -5.71875 "/></g></g></g><g fill="#ffffff" fill-opacity="1"><g transform="translate(207.112483, 293.711291)"><g><path d="M 3.140625 0.078125 C 2.640625 0.078125 2.195312 -0.0234375 1.8125 -0.234375 C 1.425781 -0.453125 1.125 -0.78125 0.90625 -1.21875 C 0.6875 -1.65625 0.578125 -2.203125 0.578125 -2.859375 C 0.578125 -3.515625 0.6875 -4.0625 0.90625 -4.5 C 1.125 -4.9375 1.425781 -5.257812 1.8125 -5.46875 C 2.195312 -5.6875 2.640625 -5.796875 3.140625 -5.796875 C 3.628906 -5.796875 4.066406 -5.6875 4.453125 -5.46875 C 4.835938 -5.257812 5.140625 -4.9375 5.359375 -4.5 C 5.585938 -4.0625 5.703125 -3.515625 5.703125 -2.859375 C 5.703125 -2.203125 5.585938 -1.65625 5.359375 -1.21875 C 5.140625 -0.78125 4.835938 -0.453125 4.453125 -0.234375 C 4.066406 -0.0234375 3.628906 0.078125 3.140625 0.078125 Z M 3.140625 -0.546875 C 3.734375 -0.546875 4.1875 -0.726562 4.5 -1.09375 C 4.820312 -1.46875 4.984375 -2.054688 4.984375 -2.859375 C 4.984375 -3.660156 4.820312 -4.242188 4.5 -4.609375 C 4.1875 -4.984375 3.734375 -5.171875 3.140625 -5.171875 C 1.910156 -5.171875 1.296875 -4.398438 1.296875 -2.859375 C 1.296875 -1.316406 1.910156 -0.546875 3.140625 -0.546875 Z M 3.140625 -0.546875 "/></g></g></g><g fill="#ffffff" fill-opacity="1"><g transform="translate(218.106084, 293.711291)"><g><path d="M 1.53125 -5.71875 L 1.53125 -0.5625 L 4.28125 -0.5625 L 4.28125 0 L 0.859375 0 L 0.859375 -5.71875 Z M 1.53125 -5.71875 "/></g></g></g><g fill="#ffffff" fill-opacity="1"><g transform="translate(227.361408, 293.711291)"><g><path d="M 1.53125 0 L 0.859375 0 L 0.859375 -5.71875 L 1.53125 -5.71875 Z M 1.53125 0 "/></g></g></g><g fill="#ffffff" fill-opacity="1"><g transform="translate(234.491737, 293.711291)"><g><path d="M 3.140625 0.078125 C 2.640625 0.078125 2.195312 -0.0234375 1.8125 -0.234375 C 1.425781 -0.453125 1.125 -0.78125 0.90625 -1.21875 C 0.6875 -1.65625 0.578125 -2.203125 0.578125 -2.859375 C 0.578125 -3.515625 0.6875 -4.0625 0.90625 -4.5 C 1.125 -4.9375 1.425781 -5.257812 1.8125 -5.46875 C 2.195312 -5.6875 2.640625 -5.796875 3.140625 -5.796875 C 3.628906 -5.796875 4.066406 -5.6875 4.453125 -5.46875 C 4.835938 -5.257812 5.140625 -4.9375 5.359375 -4.5 C 5.585938 -4.0625 5.703125 -3.515625 5.703125 -2.859375 C 5.703125 -2.203125 5.585938 -1.65625 5.359375 -1.21875 C 5.140625 -0.78125 4.835938 -0.453125 4.453125 -0.234375 C 4.066406 -0.0234375 3.628906 0.078125 3.140625 0.078125 Z M 3.140625 -0.546875 C 3.734375 -0.546875 4.1875 -0.726562 4.5 -1.09375 C 4.820312 -1.46875 4.984375 -2.054688 4.984375 -2.859375 C 4.984375 -3.660156 4.820312 -4.242188 4.5 -4.609375 C 4.1875 -4.984375 3.734375 -5.171875 3.140625 -5.171875 C 1.910156 -5.171875 1.296875 -4.398438 1.296875 -2.859375 C 1.296875 -1.316406 1.910156 -0.546875 3.140625 -0.546875 Z M 3.140625 -0.546875 "/></g></g></g></svg>